<svg xmlns="http://www.w3.org/2000/svg" xmlns:xlink="http://www.w3.org/1999/xlink" width="1200" zoomAndPan="magnify" viewBox="0 0 900 225" height="300" preserveAspectRatio="xMidYMid meet" version="1.0"><defs><g/><clipPath id="07df7f8d64"><path d="M 22.835938 27.992188 L 187.910156 27.992188 L 187.910156 193.066406 L 22.835938 193.066406 Z M 22.835938 27.992188 " clip-rule="nonzero"/></clipPath><clipPath id="2bbbee8b81"><path d="M 105.371094 27.992188 C 59.789062 27.992188 22.835938 64.945312 22.835938 110.53125 C 22.835938 156.113281 59.789062 193.066406 105.371094 193.066406 C 150.957031 193.066406 187.910156 156.113281 187.910156 110.53125 C 187.910156 64.945312 150.957031 27.992188 105.371094 27.992188 Z M 105.371094 27.992188 " clip-rule="nonzero"/></clipPath><clipPath id="85b1e1cf6f"><path d="M 0.835938 0.992188 L 165.910156 0.992188 L 165.910156 166.066406 L 0.835938 166.066406 Z M 0.835938 0.992188 " clip-rule="nonzero"/></clipPath><clipPath id="893bfe547a"><path d="M 83.371094 0.992188 C 37.789062 0.992188 0.835938 37.945312 0.835938 83.53125 C 0.835938 129.113281 37.789062 166.066406 83.371094 166.066406 C 128.957031 166.066406 165.910156 129.113281 165.910156 83.53125 C 165.910156 37.945312 128.957031 0.992188 83.371094 0.992188 Z M 83.371094 0.992188 " clip-rule="nonzero"/></clipPath><clipPath id="cee3ab2938"><rect x="0" width="166" y="0" height="167"/></clipPath><clipPath id="ebccd17933"><path d="M 71 60.453125 L 140 60.453125 L 140 165.453125 L 71 165.453125 Z M 71 60.453125 " clip-rule="nonzero"/></clipPath><clipPath id="1edf081387"><rect x="0" width="398" y="0" height="174"/></clipPath><clipPath id="ffdc7a0fa1"><rect x="0" width="327" y="0" height="166"/></clipPath><clipPath id="a27cc31efd"><rect x="0" width="357" y="0" height="19"/></clipPath></defs><g clip-path="url(#07df7f8d64)"><g clip-path="url(#2bbbee8b81)"><g transform="matrix(1, 0, 0, 1, 22, 27)"><g clip-path="url(#cee3ab2938)"><g clip-path="url(#85b1e1cf6f)"><g clip-path="url(#893bfe547a)"><path fill="#d850a4" d="M 0.835938 0.992188 L 165.910156 0.992188 L 165.910156 166.066406 L 0.835938 166.066406 Z M 0.835938 0.992188 " fill-opacity="1" fill-rule="nonzero"/></g></g></g></g></g></g><g clip-path="url(#ebccd17933)"><path fill="#ffffff" d="M 79.21875 79.53125 C 83.492188 70.382812 91.832031 60.421875 107.953125 60.886719 C 141.808594 61.863281 144.160156 95.894531 135.808594 112.066406 C 128.742188 125.75 110.757812 137.882812 109.164062 143.859375 C 107.875 148.6875 105.914062 165.492188 90.917969 165.511719 C 78.207031 165.527344 70.964844 155.746094 71.945312 144.792969 C 72.667969 136.714844 78.183594 129.933594 81.363281 134.363281 C 85.058594 139.511719 73.496094 143.636719 79.1875 152.617188 C 81.828125 156.785156 85.449219 159.460938 90.929688 159.460938 C 101.925781 159.460938 102.207031 145.714844 104.429688 141.664062 C 108.339844 134.539062 131.027344 116.21875 132.023438 96.9375 C 132.808594 81.8125 124.210938 67.929688 105.148438 69.035156 C 87.144531 70.078125 83.101562 84.746094 82.449219 92.4375 C 81.90625 98.828125 84 105.941406 80.265625 105.808594 C 76.640625 105.675781 74.621094 89.375 79.21875 79.53125 Z M 79.21875 79.53125 " fill-opacity="1" fill-rule="evenodd"/></g><path fill="#ffffff" d="M 113.890625 110.5 C 116.464844 111.65625 120.839844 104.777344 122.046875 98.4375 C 123.546875 90.550781 122.375 83.507812 115.847656 78.683594 C 103.835938 69.800781 89.101562 76.859375 86.851562 90.46875 C 84.464844 104.894531 97.976562 103.601562 93.902344 113.421875 C 92.660156 116.421875 88.625 119.972656 87.078125 122.558594 C 84.804688 126.359375 85.707031 131.492188 89.019531 133.480469 C 96.933594 138.234375 106.019531 127.335938 106.921875 114.503906 C 107.691406 103.59375 93.203125 99.238281 94.082031 91.011719 C 94.839844 83.898438 101.113281 79.417969 108.34375 81.226562 C 115.578125 83.035156 119.890625 93.351562 116.105469 101.894531 C 114.375 105.8125 111.28125 109.328125 113.890625 110.5 Z M 113.890625 110.5 " fill-opacity="1" fill-rule="evenodd"/><g transform="matrix(1, 0, 0, 1, 479, 30)"><g clip-path="url(#1edf081387)"><g fill="#63246d" fill-opacity="1"><g transform="translate(0.692304, 130.687858)"><g><path d="M 20.75 -39.609375 C 20.75 -30.460938 24.035156 -22.832031 30.609375 -16.71875 C 37.179688 -10.601562 44.925781 -7.429688 53.84375 -7.203125 C 63.101562 -7.203125 70.644531 -10.316406 76.46875 -16.546875 C 82.300781 -22.773438 85.21875 -30.460938 85.21875 -39.609375 C 85.21875 -48.984375 82.273438 -56.726562 76.390625 -62.84375 C 70.503906 -68.957031 62.929688 -72.015625 53.671875 -72.015625 C 44.640625 -72.015625 36.953125 -68.898438 30.609375 -62.671875 C 24.265625 -56.441406 20.976562 -48.753906 20.75 -39.609375 Z M 11.484375 -129.625 L 21.78125 -129.625 L 21.78125 -65.328125 L 22.125 -65.328125 C 25.09375 -70.472656 29.488281 -74.414062 35.3125 -77.15625 C 41.144531 -79.90625 47.320312 -81.28125 53.84375 -81.28125 C 66.1875 -81.28125 76.21875 -77.273438 83.9375 -69.265625 C 91.65625 -61.265625 95.515625 -51.378906 95.515625 -39.609375 C 95.515625 -27.378906 91.566406 -17.40625 83.671875 -9.6875 C 75.785156 -1.96875 65.84375 1.945312 53.84375 2.0625 C 47.09375 2.0625 40.773438 0.578125 34.890625 -2.390625 C 29.003906 -5.367188 24.75 -9.203125 22.125 -13.890625 L 21.78125 -13.890625 L 21.78125 0 L 11.484375 0 Z M 11.484375 -129.625 "/></g></g></g><g fill="#63246d" fill-opacity="1"><g transform="translate(91.737497, 130.687858)"><g><path d="M 75.796875 -46.296875 C 75.796875 -53.492188 73.109375 -59.578125 67.734375 -64.546875 C 62.359375 -69.523438 55.84375 -72.015625 48.1875 -72.015625 C 40.75 -72.015625 34.34375 -69.523438 28.96875 -64.546875 C 23.601562 -59.578125 20.460938 -53.492188 19.546875 -46.296875 Z M 48.875 -81.28125 C 59.84375 -81.28125 68.753906 -77.734375 75.609375 -70.640625 C 82.472656 -63.554688 85.960938 -54.410156 86.078125 -43.203125 L 86.078125 -37.03125 L 19.546875 -37.03125 C 20.003906 -28.113281 22.945312 -20.941406 28.375 -15.515625 C 33.800781 -10.085938 40.859375 -7.316406 49.546875 -7.203125 C 54.921875 -7.203125 60.035156 -8.488281 64.890625 -11.0625 C 69.753906 -13.632812 73.5 -17.035156 76.125 -21.265625 L 83.671875 -14.921875 C 76.242188 -3.597656 64.816406 2.0625 49.390625 2.0625 C 37.265625 1.945312 27.570312 -1.992188 20.3125 -9.765625 C 13.0625 -17.546875 9.378906 -27.550781 9.265625 -39.78125 C 9.265625 -51.664062 13.003906 -61.523438 20.484375 -69.359375 C 27.972656 -77.191406 37.4375 -81.164062 48.875 -81.28125 Z M 48.875 -81.28125 "/></g></g></g><g fill="#63246d" fill-opacity="1"><g transform="translate(173.352326, 130.687858)"><g><path d="M 19.546875 -102.03125 L 29.828125 -102.03125 L 29.828125 -79.21875 L 52.46875 -79.21875 L 52.46875 -69.953125 L 29.828125 -69.953125 L 29.828125 -18.171875 C 29.828125 -14.859375 30.800781 -12.203125 32.75 -10.203125 C 34.695312 -8.203125 37.382812 -7.203125 40.8125 -7.203125 C 44.582031 -7.203125 48.46875 -8.113281 52.46875 -9.9375 L 53.328125 -0.6875 C 48.179688 1.144531 43.664062 2.0625 39.78125 2.0625 C 33.039062 2.0625 27.984375 0.175781 24.609375 -3.59375 C 21.234375 -7.375 19.546875 -12.234375 19.546875 -18.171875 L 19.546875 -69.953125 L 2.40625 -69.953125 L 2.40625 -79.21875 L 19.546875 -79.21875 Z M 19.546875 -102.03125 "/></g></g></g><g fill="#63246d" fill-opacity="1"><g transform="translate(216.902794, 130.687858)"><g><path d="M 19.546875 -102.03125 L 29.828125 -102.03125 L 29.828125 -79.21875 L 52.46875 -79.21875 L 52.46875 -69.953125 L 29.828125 -69.953125 L 29.828125 -18.171875 C 29.828125 -14.859375 30.800781 -12.203125 32.75 -10.203125 C 34.695312 -8.203125 37.382812 -7.203125 40.8125 -7.203125 C 44.582031 -7.203125 48.46875 -8.113281 52.46875 -9.9375 L 53.328125 -0.6875 C 48.179688 1.144531 43.664062 2.0625 39.78125 2.0625 C 33.039062 2.0625 27.984375 0.175781 24.609375 -3.59375 C 21.234375 -7.375 19.546875 -12.234375 19.546875 -18.171875 L 19.546875 -69.953125 L 2.40625 -69.953125 L 2.40625 -79.21875 L 19.546875 -79.21875 Z M 19.546875 -102.03125 "/></g></g></g><g fill="#63246d" fill-opacity="1"><g transform="translate(260.281802, 130.687858)"><g><path d="M 75.796875 -46.296875 C 75.796875 -53.492188 73.109375 -59.578125 67.734375 -64.546875 C 62.359375 -69.523438 55.84375 -72.015625 48.1875 -72.015625 C 40.75 -72.015625 34.34375 -69.523438 28.96875 -64.546875 C 23.601562 -59.578125 20.460938 -53.492188 19.546875 -46.296875 Z M 48.875 -81.28125 C 59.84375 -81.28125 68.753906 -77.734375 75.609375 -70.640625 C 82.472656 -63.554688 85.960938 -54.410156 86.078125 -43.203125 L 86.078125 -37.03125 L 19.546875 -37.03125 C 20.003906 -28.113281 22.945312 -20.941406 28.375 -15.515625 C 33.800781 -10.085938 40.859375 -7.316406 49.546875 -7.203125 C 54.921875 -7.203125 60.035156 -8.488281 64.890625 -11.0625 C 69.753906 -13.632812 73.5 -17.035156 76.125 -21.265625 L 83.671875 -14.921875 C 76.242188 -3.597656 64.816406 2.0625 49.390625 2.0625 C 37.265625 1.945312 27.570312 -1.992188 20.3125 -9.765625 C 13.0625 -17.546875 9.378906 -27.550781 9.265625 -39.78125 C 9.265625 -51.664062 13.003906 -61.523438 20.484375 -69.359375 C 27.972656 -77.191406 37.4375 -81.164062 48.875 -81.28125 Z M 48.875 -81.28125 "/></g></g></g><g fill="#63246d" fill-opacity="1"><g transform="translate(341.896631, 130.687858)"><g><path d="M 49.046875 -81.28125 C 50.984375 -81.28125 52.984375 -80.992188 55.046875 -80.421875 L 53.84375 -70.296875 C 52.582031 -70.753906 51.207031 -70.984375 49.71875 -70.984375 C 41.375 -70.984375 35 -68.410156 30.59375 -63.265625 C 26.195312 -58.128906 24 -51.441406 24 -43.203125 L 24 0 L 13.71875 0 L 13.71875 -57.78125 C 13.71875 -58.925781 13.429688 -66.070312 12.859375 -79.21875 L 23.140625 -79.21875 C 23.367188 -71.332031 23.597656 -66.703125 23.828125 -65.328125 C 29.773438 -75.960938 38.179688 -81.28125 49.046875 -81.28125 Z M 49.046875 -81.28125 "/></g></g></g></g></g><g transform="matrix(1, 0, 0, 1, 156, 32)"><g clip-path="url(#ffdc7a0fa1)"><g fill="#63246d" fill-opacity="1"><g transform="translate(1.406239, 127.758881)"><g><path d="M 34.734375 -52.609375 L 34.734375 0 L 11.421875 0 L 11.421875 -115.796875 L 34.734375 -115.796875 L 34.734375 -72.453125 C 42.234375 -80.617188 51.441406 -84.703125 62.359375 -84.703125 C 71.953125 -84.703125 79.367188 -81.664062 84.609375 -75.59375 C 89.847656 -69.53125 92.46875 -61.207031 92.46875 -50.625 L 92.46875 0 L 69.140625 0 L 69.140625 -45.828125 C 69.140625 -52.222656 67.59375 -56.742188 64.5 -59.390625 C 61.414062 -62.035156 57.726562 -63.359375 53.4375 -63.359375 C 49.789062 -63.359375 46.257812 -62.335938 42.84375 -60.296875 C 39.425781 -58.253906 36.722656 -55.691406 34.734375 -52.609375 Z M 34.734375 -52.609375 "/></g></g></g><g fill="#63246d" fill-opacity="1"><g transform="translate(90.40161, 127.758881)"><g><path d="M 51.78125 2.15625 C 43.289062 2.15625 35.570312 0.363281 28.625 -3.21875 C 21.675781 -6.8125 16.160156 -11.882812 12.078125 -18.4375 C 7.992188 -25 5.953125 -32.640625 5.953125 -41.359375 C 5.953125 -49.515625 7.769531 -56.875 11.40625 -63.4375 C 15.050781 -70 20.125 -75.179688 26.625 -78.984375 C 33.132812 -82.796875 40.582031 -84.703125 48.96875 -84.703125 C 57.019531 -84.703125 63.96875 -82.710938 69.8125 -78.734375 C 75.65625 -74.765625 80.203125 -69.472656 83.453125 -62.859375 C 86.703125 -56.242188 88.328125 -48.96875 88.328125 -41.03125 L 88.328125 -34.90625 L 29.109375 -34.90625 C 30.328125 -29.28125 33.414062 -25.003906 38.375 -22.078125 C 43.34375 -19.160156 49.460938 -17.703125 56.734375 -17.703125 C 65.890625 -17.703125 74.710938 -20.128906 83.203125 -24.984375 L 83.203125 -6.28125 C 75.816406 -0.65625 65.34375 2.15625 51.78125 2.15625 Z M 29.109375 -49.796875 L 65.34375 -49.796875 C 65.125 -54.316406 63.46875 -58.203125 60.375 -61.453125 C 57.289062 -64.703125 53.15625 -66.328125 47.96875 -66.328125 C 42.675781 -66.328125 38.347656 -64.785156 34.984375 -61.703125 C 31.617188 -58.617188 29.660156 -54.648438 29.109375 -49.796875 Z M 29.109375 -49.796875 "/></g></g></g><g fill="#63246d" fill-opacity="1"><g transform="translate(171.953081, 127.758881)"><g><path d="M 89.984375 -18.03125 C 92.078125 -18.03125 93.675781 -18.363281 94.78125 -19.03125 L 94.78125 -1.984375 C 91.8125 0.328125 87.625 1.484375 82.21875 1.484375 C 72.84375 1.484375 66.609375 -2.039062 63.515625 -9.09375 C 56.242188 -1.59375 46.757812 2.15625 35.0625 2.15625 C 26.132812 2.15625 18.828125 -0.351562 13.140625 -5.375 C 7.460938 -10.394531 4.625 -17.09375 4.625 -25.46875 C 4.625 -31.425781 6.140625 -36.414062 9.171875 -40.4375 C 12.210938 -44.46875 16.210938 -47.503906 21.171875 -49.546875 C 26.140625 -51.585938 31.488281 -52.609375 37.21875 -52.609375 C 46.59375 -52.609375 54.535156 -50.894531 61.046875 -47.46875 L 61.046875 -49.953125 C 61.046875 -60.316406 53.765625 -65.5 39.203125 -65.5 C 30.378906 -65.5 22.050781 -63.1875 14.21875 -58.5625 L 14.21875 -78.078125 C 22.601562 -82.492188 32.804688 -84.703125 44.828125 -84.703125 C 52.660156 -84.703125 59.523438 -83.375 65.421875 -80.71875 C 71.328125 -78.070312 75.929688 -74.347656 79.234375 -69.546875 C 82.546875 -64.753906 84.203125 -58.992188 84.203125 -52.265625 L 84.203125 -24.3125 C 84.203125 -20.125 86.128906 -18.03125 89.984375 -18.03125 Z M 61.046875 -25.96875 L 61.046875 -30.9375 C 59.828125 -32.476562 57.507812 -33.9375 54.09375 -35.3125 C 50.675781 -36.695312 47.257812 -37.390625 43.84375 -37.390625 C 38.875 -37.390625 34.925781 -36.453125 32 -34.578125 C 29.082031 -32.703125 27.625 -30.054688 27.625 -26.640625 C 27.625 -22.992188 29 -20.285156 31.75 -18.515625 C 34.507812 -16.753906 38.039062 -15.875 42.34375 -15.875 C 46.425781 -15.875 50.035156 -16.863281 53.171875 -18.84375 C 56.316406 -20.832031 58.941406 -23.207031 61.046875 -25.96875 Z M 61.046875 -25.96875 "/></g></g></g><g fill="#63246d" fill-opacity="1"><g transform="translate(258.301731, 127.758881)"><g><path d="M 34.734375 0 L 11.421875 0 L 11.421875 -82.546875 L 34.734375 -82.546875 L 34.734375 -68.65625 C 36.390625 -71.519531 38.707031 -74.164062 41.6875 -76.59375 C 44.664062 -79.019531 48.03125 -80.976562 51.78125 -82.46875 C 55.53125 -83.957031 59.441406 -84.703125 63.515625 -84.703125 C 64.835938 -84.703125 65.722656 -84.644531 66.171875 -84.53125 L 66.171875 -61.703125 C 63.960938 -62.253906 61.535156 -62.53125 58.890625 -62.53125 C 53.265625 -62.53125 48.242188 -61.066406 43.828125 -58.140625 C 39.421875 -55.222656 36.390625 -51.890625 34.734375 -48.140625 Z M 34.734375 0 "/></g></g></g></g></g><g transform="matrix(1, 0, 0, 1, 501, 175)"><g clip-path="url(#a27cc31efd)"><g fill="#63246d" fill-opacity="1"><g transform="translate(0.968834, 14.608537)"><g><path d="M 16.4375 -10.296875 L 13.03125 0 L 11 0 L 8.453125 -7.625 L 5.859375 0 L 3.8125 0 L 0.390625 -10.296875 L 2.390625 -10.296875 L 4.953125 -2.46875 L 7.609375 -10.296875 L 9.375 -10.296875 L 11.984375 -2.421875 L 14.609375 -10.296875 Z M 16.4375 -10.296875 "/></g></g></g><g fill="#63246d" fill-opacity="1"><g transform="translate(22.396519, 14.608537)"><g><path d="M 16.4375 -10.296875 L 13.03125 0 L 11 0 L 8.453125 -7.625 L 5.859375 0 L 3.8125 0 L 0.390625 -10.296875 L 2.390625 -10.296875 L 4.953125 -2.46875 L 7.609375 -10.296875 L 9.375 -10.296875 L 11.984375 -2.421875 L 14.609375 -10.296875 Z M 16.4375 -10.296875 "/></g></g></g><g fill="#63246d" fill-opacity="1"><g transform="translate(43.824204, 14.608537)"><g><path d="M 16.4375 -10.296875 L 13.03125 0 L 11 0 L 8.453125 -7.625 L 5.859375 0 L 3.8125 0 L 0.390625 -10.296875 L 2.390625 -10.296875 L 4.953125 -2.46875 L 7.609375 -10.296875 L 9.375 -10.296875 L 11.984375 -2.421875 L 14.609375 -10.296875 Z M 16.4375 -10.296875 "/></g></g></g><g fill="#63246d" fill-opacity="1"><g transform="translate(64.707423, 14.608537)"><g><path d="M 1.796875 0.109375 C 1.460938 0.109375 1.175781 -0.00390625 0.9375 -0.234375 C 0.707031 -0.472656 0.59375 -0.769531 0.59375 -1.125 C 0.59375 -1.476562 0.707031 -1.769531 0.9375 -2 C 1.164062 -2.226562 1.453125 -2.34375 1.796875 -2.34375 C 2.140625 -2.34375 2.425781 -2.226562 2.65625 -2 C 2.882812 -1.769531 3 -1.476562 3 -1.125 C 3 -0.769531 2.878906 -0.472656 2.640625 -0.234375 C 2.410156 -0.00390625 2.128906 0.109375 1.796875 0.109375 Z M 1.796875 0.109375 "/></g></g></g><g fill="#63246d" fill-opacity="1"><g transform="translate(72.90343, 14.608537)"><g><path d="M 10.53125 -10.296875 L 10.53125 0 L 8.625 0 L 8.625 -4.421875 L 3.296875 -4.421875 L 3.296875 0 L 1.390625 0 L 1.390625 -10.296875 L 3.296875 -10.296875 L 3.296875 -6.046875 L 8.625 -6.046875 L 8.625 -10.296875 Z M 10.53125 -10.296875 "/></g></g></g><g fill="#63246d" fill-opacity="1"><g transform="translate(89.420687, 14.608537)"><g><path d="M 9.109375 -1.609375 L 9.109375 0 L 1.390625 0 L 1.390625 -10.296875 L 8.90625 -10.296875 L 8.90625 -8.703125 L 3.296875 -8.703125 L 3.296875 -6.015625 L 8.265625 -6.015625 L 8.265625 -4.4375 L 3.296875 -4.4375 L 3.296875 -1.609375 Z M 9.109375 -1.609375 "/></g></g></g><g fill="#63246d" fill-opacity="1"><g transform="translate(103.879694, 14.608537)"><g><path d="M 8.0625 -2.390625 L 2.921875 -2.390625 L 1.90625 0 L -0.078125 0 L 4.5625 -10.296875 L 6.453125 -10.296875 L 11.09375 0 L 9.09375 0 Z M 7.4375 -3.890625 L 5.484375 -8.390625 L 3.5625 -3.890625 Z M 7.4375 -3.890625 "/></g></g></g><g fill="#63246d" fill-opacity="1"><g transform="translate(119.500142, 14.608537)"><g><path d="M 8.125 0 L 6.015625 -3.015625 C 5.929688 -3.003906 5.800781 -3 5.625 -3 L 3.296875 -3 L 3.296875 0 L 1.390625 0 L 1.390625 -10.296875 L 5.625 -10.296875 C 6.519531 -10.296875 7.296875 -10.148438 7.953125 -9.859375 C 8.617188 -9.566406 9.128906 -9.144531 9.484375 -8.59375 C 9.835938 -8.039062 10.015625 -7.390625 10.015625 -6.640625 C 10.015625 -5.859375 9.820312 -5.1875 9.4375 -4.625 C 9.0625 -4.070312 8.519531 -3.660156 7.8125 -3.390625 L 10.1875 0 Z M 8.078125 -6.640625 C 8.078125 -7.296875 7.859375 -7.800781 7.421875 -8.15625 C 6.992188 -8.507812 6.363281 -8.6875 5.53125 -8.6875 L 3.296875 -8.6875 L 3.296875 -4.578125 L 5.53125 -4.578125 C 6.363281 -4.578125 6.992188 -4.753906 7.421875 -5.109375 C 7.859375 -5.472656 8.078125 -5.984375 8.078125 -6.640625 Z M 8.078125 -6.640625 "/></g></g></g><g fill="#63246d" fill-opacity="1"><g transform="translate(134.855958, 14.608537)"><g><path d="M 8.6875 -5.359375 C 9.25 -5.171875 9.695312 -4.859375 10.03125 -4.421875 C 10.363281 -3.984375 10.53125 -3.441406 10.53125 -2.796875 C 10.53125 -1.898438 10.1875 -1.207031 9.5 -0.71875 C 8.820312 -0.238281 7.820312 0 6.5 0 L 1.390625 0 L 1.390625 -10.296875 L 6.21875 -10.296875 C 7.425781 -10.296875 8.359375 -10.054688 9.015625 -9.578125 C 9.679688 -9.109375 10.015625 -8.457031 10.015625 -7.625 C 10.015625 -7.113281 9.894531 -6.660156 9.65625 -6.265625 C 9.414062 -5.878906 9.09375 -5.578125 8.6875 -5.359375 Z M 3.296875 -8.796875 L 3.296875 -5.96875 L 6 -5.96875 C 6.664062 -5.96875 7.175781 -6.085938 7.53125 -6.328125 C 7.894531 -6.566406 8.078125 -6.914062 8.078125 -7.375 C 8.078125 -7.84375 7.894531 -8.195312 7.53125 -8.4375 C 7.175781 -8.675781 6.664062 -8.796875 6 -8.796875 Z M 6.390625 -1.5 C 7.867188 -1.5 8.609375 -1.992188 8.609375 -2.984375 C 8.609375 -3.972656 7.867188 -4.46875 6.390625 -4.46875 L 3.296875 -4.46875 L 3.296875 -1.5 Z M 6.390625 -1.5 "/></g></g></g><g fill="#63246d" fill-opacity="1"><g transform="translate(150.652833, 14.608537)"><g><path d="M 9.109375 -1.609375 L 9.109375 0 L 1.390625 0 L 1.390625 -10.296875 L 8.90625 -10.296875 L 8.90625 -8.703125 L 3.296875 -8.703125 L 3.296875 -6.015625 L 8.265625 -6.015625 L 8.265625 -4.4375 L 3.296875 -4.4375 L 3.296875 -1.609375 Z M 9.109375 -1.609375 "/></g></g></g><g fill="#63246d" fill-opacity="1"><g transform="translate(165.11184, 14.608537)"><g><path d="M 3.46875 -8.6875 L 0.0625 -8.6875 L 0.0625 -10.296875 L 8.796875 -10.296875 L 8.796875 -8.6875 L 5.390625 -8.6875 L 5.390625 0 L 3.46875 0 Z M 3.46875 -8.6875 "/></g></g></g><g fill="#63246d" fill-opacity="1"><g transform="translate(178.71827, 14.608537)"><g><path d="M 3.46875 -8.6875 L 0.0625 -8.6875 L 0.0625 -10.296875 L 8.796875 -10.296875 L 8.796875 -8.6875 L 5.390625 -8.6875 L 5.390625 0 L 3.46875 0 Z M 3.46875 -8.6875 "/></g></g></g><g fill="#63246d" fill-opacity="1"><g transform="translate(192.177544, 14.608537)"><g><path d="M 9.109375 -1.609375 L 9.109375 0 L 1.390625 0 L 1.390625 -10.296875 L 8.90625 -10.296875 L 8.90625 -8.703125 L 3.296875 -8.703125 L 3.296875 -6.015625 L 8.265625 -6.015625 L 8.265625 -4.4375 L 3.296875 -4.4375 L 3.296875 -1.609375 Z M 9.109375 -1.609375 "/></g></g></g><g fill="#63246d" fill-opacity="1"><g transform="translate(206.636551, 14.608537)"><g><path d="M 8.125 0 L 6.015625 -3.015625 C 5.929688 -3.003906 5.800781 -3 5.625 -3 L 3.296875 -3 L 3.296875 0 L 1.390625 0 L 1.390625 -10.296875 L 5.625 -10.296875 C 6.519531 -10.296875 7.296875 -10.148438 7.953125 -9.859375 C 8.617188 -9.566406 9.128906 -9.144531 9.484375 -8.59375 C 9.835938 -8.039062 10.015625 -7.390625 10.015625 -6.640625 C 10.015625 -5.859375 9.820312 -5.1875 9.4375 -4.625 C 9.0625 -4.070312 8.519531 -3.660156 7.8125 -3.390625 L 10.1875 0 Z M 8.078125 -6.640625 C 8.078125 -7.296875 7.859375 -7.800781 7.421875 -8.15625 C 6.992188 -8.507812 6.363281 -8.6875 5.53125 -8.6875 L 3.296875 -8.6875 L 3.296875 -4.578125 L 5.53125 -4.578125 C 6.363281 -4.578125 6.992188 -4.753906 7.421875 -5.109375 C 7.859375 -5.472656 8.078125 -5.984375 8.078125 -6.640625 Z M 8.078125 -6.640625 "/></g></g></g><g fill="#63246d" fill-opacity="1"><g transform="translate(221.992367, 14.608537)"><g><path d="M 10.53125 -10.296875 L 10.53125 0 L 8.96875 0 L 3.28125 -6.984375 L 3.28125 0 L 1.390625 0 L 1.390625 -10.296875 L 2.953125 -10.296875 L 8.640625 -3.328125 L 8.640625 -10.296875 Z M 10.53125 -10.296875 "/></g></g></g><g fill="#63246d" fill-opacity="1"><g transform="translate(238.509624, 14.608537)"><g><path d="M 6.203125 0.140625 C 5.148438 0.140625 4.203125 -0.0820312 3.359375 -0.53125 C 2.515625 -0.988281 1.847656 -1.625 1.359375 -2.4375 C 0.878906 -3.25 0.640625 -4.15625 0.640625 -5.15625 C 0.640625 -6.15625 0.878906 -7.054688 1.359375 -7.859375 C 1.847656 -8.671875 2.515625 -9.304688 3.359375 -9.765625 C 4.203125 -10.222656 5.148438 -10.453125 6.203125 -10.453125 C 7.242188 -10.453125 8.1875 -10.222656 9.03125 -9.765625 C 9.875 -9.304688 10.535156 -8.675781 11.015625 -7.875 C 11.503906 -7.070312 11.75 -6.164062 11.75 -5.15625 C 11.75 -4.144531 11.503906 -3.234375 11.015625 -2.421875 C 10.535156 -1.617188 9.875 -0.988281 9.03125 -0.53125 C 8.1875 -0.0820312 7.242188 0.140625 6.203125 0.140625 Z M 6.203125 -1.53125 C 6.890625 -1.53125 7.503906 -1.679688 8.046875 -1.984375 C 8.597656 -2.296875 9.03125 -2.726562 9.34375 -3.28125 C 9.65625 -3.84375 9.8125 -4.46875 9.8125 -5.15625 C 9.8125 -5.84375 9.65625 -6.460938 9.34375 -7.015625 C 9.03125 -7.566406 8.597656 -7.992188 8.046875 -8.296875 C 7.503906 -8.609375 6.890625 -8.765625 6.203125 -8.765625 C 5.515625 -8.765625 4.894531 -8.609375 4.34375 -8.296875 C 3.789062 -7.992188 3.359375 -7.566406 3.046875 -7.015625 C 2.734375 -6.460938 2.578125 -5.84375 2.578125 -5.15625 C 2.578125 -4.46875 2.734375 -3.84375 3.046875 -3.28125 C 3.359375 -2.726562 3.789062 -2.296875 4.34375 -1.984375 C 4.894531 -1.679688 5.515625 -1.53125 6.203125 -1.53125 Z M 6.203125 -1.53125 "/></g></g></g><g fill="#63246d" fill-opacity="1"><g transform="translate(255.1736, 14.608537)"><g><path d="M 16.4375 -10.296875 L 13.03125 0 L 11 0 L 8.453125 -7.625 L 5.859375 0 L 3.8125 0 L 0.390625 -10.296875 L 2.390625 -10.296875 L 4.953125 -2.46875 L 7.609375 -10.296875 L 9.375 -10.296875 L 11.984375 -2.421875 L 14.609375 -10.296875 Z M 16.4375 -10.296875 "/></g></g></g><g fill="#63246d" fill-opacity="1"><g transform="translate(276.056819, 14.608537)"><g><path d="M 1.796875 0.109375 C 1.460938 0.109375 1.175781 -0.00390625 0.9375 -0.234375 C 0.707031 -0.472656 0.59375 -0.769531 0.59375 -1.125 C 0.59375 -1.476562 0.707031 -1.769531 0.9375 -2 C 1.164062 -2.226562 1.453125 -2.34375 1.796875 -2.34375 C 2.140625 -2.34375 2.425781 -2.226562 2.65625 -2 C 2.882812 -1.769531 3 -1.476562 3 -1.125 C 3 -0.769531 2.878906 -0.472656 2.640625 -0.234375 C 2.410156 -0.00390625 2.128906 0.109375 1.796875 0.109375 Z M 1.796875 0.109375 "/></g></g></g><g fill="#63246d" fill-opacity="1"><g transform="translate(283.958515, 14.608537)"><g><path d="M 6.15625 0.140625 C 5.113281 0.140625 4.171875 -0.0820312 3.328125 -0.53125 C 2.492188 -0.988281 1.835938 -1.617188 1.359375 -2.421875 C 0.878906 -3.234375 0.640625 -4.144531 0.640625 -5.15625 C 0.640625 -6.164062 0.878906 -7.070312 1.359375 -7.875 C 1.847656 -8.675781 2.507812 -9.304688 3.34375 -9.765625 C 4.1875 -10.222656 5.128906 -10.453125 6.171875 -10.453125 C 7.015625 -10.453125 7.78125 -10.300781 8.46875 -10 C 9.164062 -9.707031 9.757812 -9.285156 10.25 -8.734375 L 9.015625 -7.5625 C 8.265625 -8.363281 7.34375 -8.765625 6.25 -8.765625 C 5.550781 -8.765625 4.921875 -8.609375 4.359375 -8.296875 C 3.796875 -7.992188 3.359375 -7.566406 3.046875 -7.015625 C 2.734375 -6.472656 2.578125 -5.851562 2.578125 -5.15625 C 2.578125 -4.457031 2.734375 -3.832031 3.046875 -3.28125 C 3.359375 -2.726562 3.796875 -2.296875 4.359375 -1.984375 C 4.921875 -1.679688 5.550781 -1.53125 6.25 -1.53125 C 7.34375 -1.53125 8.265625 -1.9375 9.015625 -2.75 L 10.25 -1.578125 C 9.757812 -1.015625 9.164062 -0.585938 8.46875 -0.296875 C 7.769531 -0.00390625 7 0.140625 6.15625 0.140625 Z M 6.15625 0.140625 "/></g></g></g><g fill="#63246d" fill-opacity="1"><g transform="translate(299.034768, 14.608537)"><g><path d="M 6.203125 0.140625 C 5.148438 0.140625 4.203125 -0.0820312 3.359375 -0.53125 C 2.515625 -0.988281 1.847656 -1.625 1.359375 -2.4375 C 0.878906 -3.25 0.640625 -4.15625 0.640625 -5.15625 C 0.640625 -6.15625 0.878906 -7.054688 1.359375 -7.859375 C 1.847656 -8.671875 2.515625 -9.304688 3.359375 -9.765625 C 4.203125 -10.222656 5.148438 -10.453125 6.203125 -10.453125 C 7.242188 -10.453125 8.1875 -10.222656 9.03125 -9.765625 C 9.875 -9.304688 10.535156 -8.675781 11.015625 -7.875 C 11.503906 -7.070312 11.75 -6.164062 11.75 -5.15625 C 11.75 -4.144531 11.503906 -3.234375 11.015625 -2.421875 C 10.535156 -1.617188 9.875 -0.988281 9.03125 -0.53125 C 8.1875 -0.0820312 7.242188 0.140625 6.203125 0.140625 Z M 6.203125 -1.53125 C 6.890625 -1.53125 7.503906 -1.679688 8.046875 -1.984375 C 8.597656 -2.296875 9.03125 -2.726562 9.34375 -3.28125 C 9.65625 -3.84375 9.8125 -4.46875 9.8125 -5.15625 C 9.8125 -5.84375 9.65625 -6.460938 9.34375 -7.015625 C 9.03125 -7.566406 8.597656 -7.992188 8.046875 -8.296875 C 7.503906 -8.609375 6.890625 -8.765625 6.203125 -8.765625 C 5.515625 -8.765625 4.894531 -8.609375 4.34375 -8.296875 C 3.789062 -7.992188 3.359375 -7.566406 3.046875 -7.015625 C 2.734375 -6.460938 2.578125 -5.84375 2.578125 -5.15625 C 2.578125 -4.46875 2.734375 -3.84375 3.046875 -3.28125 C 3.359375 -2.726562 3.789062 -2.296875 4.34375 -1.984375 C 4.894531 -1.679688 5.515625 -1.53125 6.203125 -1.53125 Z M 6.203125 -1.53125 "/></g></g></g><g fill="#63246d" fill-opacity="1"><g transform="translate(315.728196, 14.608537)"><g><path d="M 1.796875 0.109375 C 1.460938 0.109375 1.175781 -0.00390625 0.9375 -0.234375 C 0.707031 -0.472656 0.59375 -0.769531 0.59375 -1.125 C 0.59375 -1.476562 0.707031 -1.769531 0.9375 -2 C 1.164062 -2.226562 1.453125 -2.34375 1.796875 -2.34375 C 2.140625 -2.34375 2.425781 -2.226562 2.65625 -2 C 2.882812 -1.769531 3 -1.476562 3 -1.125 C 3 -0.769531 2.878906 -0.472656 2.640625 -0.234375 C 2.410156 -0.00390625 2.128906 0.109375 1.796875 0.109375 Z M 1.796875 0.109375 "/></g></g></g><g fill="#63246d" fill-opacity="1"><g transform="translate(323.806484, 14.608537)"><g><path d="M 5.8125 0.140625 C 4.394531 0.140625 3.285156 -0.253906 2.484375 -1.046875 C 1.691406 -1.847656 1.296875 -2.992188 1.296875 -4.484375 L 1.296875 -10.296875 L 3.203125 -10.296875 L 3.203125 -4.5625 C 3.203125 -2.539062 4.078125 -1.53125 5.828125 -1.53125 C 7.566406 -1.53125 8.4375 -2.539062 8.4375 -4.5625 L 8.4375 -10.296875 L 10.3125 -10.296875 L 10.3125 -4.484375 C 10.3125 -2.992188 9.914062 -1.847656 9.125 -1.046875 C 8.34375 -0.253906 7.238281 0.140625 5.8125 0.140625 Z M 5.8125 0.140625 "/></g></g></g><g fill="#63246d" fill-opacity="1"><g transform="translate(340.015013, 14.608537)"><g><path d="M 4.9375 -4.3125 L 3.296875 -2.640625 L 3.296875 0 L 1.390625 0 L 1.390625 -10.296875 L 3.296875 -10.296875 L 3.296875 -5.015625 L 8.390625 -10.296875 L 10.53125 -10.296875 L 6.21875 -5.703125 L 10.796875 0 L 8.5625 0 Z M 4.9375 -4.3125 "/></g></g></g></g></g></svg>